<!--?xml version="1.0" standalone="no"?-->
              <svg id="sw-js-blob-svg" viewBox="0 0 100 100" xmlns="http://www.w3.org/2000/svg" version="1.1">
                    <defs> 
                        <linearGradient id="sw-gradient" x1="0" x2="1" y1="1" y2="0">
                            <stop id="stop1" stop-color="rgba(6, 70, 99, 1)" offset="0%"></stop>
                            <stop id="stop2" stop-color="rgba(4, 28, 50, 1)" offset="100%"></stop>
                        </linearGradient>
                    </defs>
                <path fill="url(#sw-gradient)" d="M17.8,-22.3C20,-19.3,16.8,-10.8,19.6,-2.4C22.3,6.1,31.1,14.5,30.9,20.6C30.7,26.7,21.6,30.4,12.4,33.6C3.2,36.8,-6.1,39.4,-9.8,34.7C-13.6,30,-11.8,17.9,-17.3,9.5C-22.8,1,-35.6,-3.8,-36.8,-8.2C-38,-12.6,-27.7,-16.6,-19.6,-18.6C-11.6,-20.5,-5.8,-20.3,1,-21.5C7.8,-22.7,15.5,-25.2,17.8,-22.3Z" width="100%" height="100%" transform="translate(50 50)" stroke-width="0" style="transition: all 0.3s ease 0s;" stroke="url(#sw-gradient)"></path>
              </svg>